<mxfile host="app.diagrams.net" modified="2023-08-17T08:40:12.887Z" agent="Mozilla/5.0 (Windows NT 10.0; Win64; x64) AppleWebKit/537.36 (KHTML, like Gecko) Chrome/115.0.0.0 Safari/537.36 Edg/115.0.1901.203" etag="7ABVeq7pZ_bbJCOPI0o4" version="21.6.6" type="github">
  <diagram id="C5RBs43oDa-KdzZeNtuy" name="Page-1">
    <mxGraphModel dx="1191" dy="436" grid="1" gridSize="10" guides="1" tooltips="1" connect="1" arrows="1" fold="1" page="1" pageScale="1" pageWidth="827" pageHeight="1169" math="0" shadow="0">
      <root>
        <mxCell id="WIyWlLk6GJQsqaUBKTNV-0" />
        <mxCell id="WIyWlLk6GJQsqaUBKTNV-1" parent="WIyWlLk6GJQsqaUBKTNV-0" />
        <mxCell id="La1fuwTci3h4XpZRs-hB-0" style="edgeStyle=orthogonalEdgeStyle;rounded=0;orthogonalLoop=1;jettySize=auto;html=1;exitX=0.5;exitY=1;exitDx=0;exitDy=0;entryX=0.456;entryY=-0.01;entryDx=0;entryDy=0;entryPerimeter=0;" edge="1" parent="WIyWlLk6GJQsqaUBKTNV-1" source="La1fuwTci3h4XpZRs-hB-1" target="La1fuwTci3h4XpZRs-hB-3">
          <mxGeometry relative="1" as="geometry" />
        </mxCell>
        <mxCell id="La1fuwTci3h4XpZRs-hB-1" value="在携客云发起送审" style="rounded=1;whiteSpace=wrap;html=1;fontSize=12;glass=0;strokeWidth=1;shadow=0;" vertex="1" parent="WIyWlLk6GJQsqaUBKTNV-1">
          <mxGeometry x="221" y="90" width="120" height="40" as="geometry" />
        </mxCell>
        <mxCell id="La1fuwTci3h4XpZRs-hB-17" style="edgeStyle=orthogonalEdgeStyle;rounded=0;orthogonalLoop=1;jettySize=auto;html=1;exitX=0.75;exitY=1;exitDx=0;exitDy=0;entryX=0.75;entryY=0;entryDx=0;entryDy=0;" edge="1" parent="WIyWlLk6GJQsqaUBKTNV-1" source="La1fuwTci3h4XpZRs-hB-3" target="La1fuwTci3h4XpZRs-hB-12">
          <mxGeometry relative="1" as="geometry">
            <Array as="points">
              <mxPoint x="319" y="240" />
              <mxPoint x="319" y="288" />
            </Array>
          </mxGeometry>
        </mxCell>
        <mxCell id="La1fuwTci3h4XpZRs-hB-18" value="返回携客云已送审数据" style="edgeLabel;html=1;align=center;verticalAlign=middle;resizable=0;points=[];" vertex="1" connectable="0" parent="La1fuwTci3h4XpZRs-hB-17">
          <mxGeometry x="0.2828" y="1" relative="1" as="geometry">
            <mxPoint as="offset" />
          </mxGeometry>
        </mxCell>
        <mxCell id="La1fuwTci3h4XpZRs-hB-3" value="携客云SRM" style="rounded=0;whiteSpace=wrap;html=1;fillColor=#fff2cc;strokeColor=#d6b656;" vertex="1" parent="WIyWlLk6GJQsqaUBKTNV-1">
          <mxGeometry x="211" y="170" width="150" height="70" as="geometry" />
        </mxCell>
        <mxCell id="La1fuwTci3h4XpZRs-hB-13" style="edgeStyle=orthogonalEdgeStyle;rounded=0;orthogonalLoop=1;jettySize=auto;html=1;exitX=0.25;exitY=0;exitDx=0;exitDy=0;entryX=0.211;entryY=0.981;entryDx=0;entryDy=0;entryPerimeter=0;" edge="1" parent="WIyWlLk6GJQsqaUBKTNV-1" source="La1fuwTci3h4XpZRs-hB-12" target="La1fuwTci3h4XpZRs-hB-3">
          <mxGeometry relative="1" as="geometry" />
        </mxCell>
        <mxCell id="La1fuwTci3h4XpZRs-hB-14" value="获取携客云已送审数据" style="edgeLabel;html=1;align=center;verticalAlign=middle;resizable=0;points=[];" vertex="1" connectable="0" parent="La1fuwTci3h4XpZRs-hB-13">
          <mxGeometry x="-0.0274" relative="1" as="geometry">
            <mxPoint x="1" y="-20" as="offset" />
          </mxGeometry>
        </mxCell>
        <mxCell id="La1fuwTci3h4XpZRs-hB-21" style="edgeStyle=orthogonalEdgeStyle;rounded=0;orthogonalLoop=1;jettySize=auto;html=1;exitX=0.25;exitY=1;exitDx=0;exitDy=0;entryX=0.5;entryY=0;entryDx=0;entryDy=0;" edge="1" parent="WIyWlLk6GJQsqaUBKTNV-1" source="La1fuwTci3h4XpZRs-hB-12" target="La1fuwTci3h4XpZRs-hB-19">
          <mxGeometry relative="1" as="geometry" />
        </mxCell>
        <mxCell id="La1fuwTci3h4XpZRs-hB-22" style="edgeStyle=orthogonalEdgeStyle;rounded=0;orthogonalLoop=1;jettySize=auto;html=1;exitX=0.75;exitY=1;exitDx=0;exitDy=0;entryX=0.5;entryY=0;entryDx=0;entryDy=0;" edge="1" parent="WIyWlLk6GJQsqaUBKTNV-1" source="La1fuwTci3h4XpZRs-hB-12" target="La1fuwTci3h4XpZRs-hB-20">
          <mxGeometry relative="1" as="geometry" />
        </mxCell>
        <mxCell id="La1fuwTci3h4XpZRs-hB-12" value="OA" style="rounded=0;whiteSpace=wrap;html=1;fillColor=#d5e8d4;strokeColor=#82b366;" vertex="1" parent="WIyWlLk6GJQsqaUBKTNV-1">
          <mxGeometry x="206" y="335" width="150" height="70" as="geometry" />
        </mxCell>
        <mxCell id="La1fuwTci3h4XpZRs-hB-23" style="edgeStyle=orthogonalEdgeStyle;rounded=0;orthogonalLoop=1;jettySize=auto;html=1;exitX=0.5;exitY=1;exitDx=0;exitDy=0;entryX=0;entryY=0.5;entryDx=0;entryDy=0;" edge="1" parent="WIyWlLk6GJQsqaUBKTNV-1" source="La1fuwTci3h4XpZRs-hB-19" target="La1fuwTci3h4XpZRs-hB-3">
          <mxGeometry relative="1" as="geometry">
            <Array as="points">
              <mxPoint x="201" y="520" />
              <mxPoint x="101" y="520" />
              <mxPoint x="101" y="205" />
            </Array>
          </mxGeometry>
        </mxCell>
        <mxCell id="La1fuwTci3h4XpZRs-hB-26" value="审核通过" style="edgeLabel;html=1;align=center;verticalAlign=middle;resizable=0;points=[];" vertex="1" connectable="0" parent="La1fuwTci3h4XpZRs-hB-23">
          <mxGeometry x="0.0703" y="1" relative="1" as="geometry">
            <mxPoint as="offset" />
          </mxGeometry>
        </mxCell>
        <mxCell id="La1fuwTci3h4XpZRs-hB-19" value="询价比价单" style="rounded=1;whiteSpace=wrap;html=1;fontSize=12;glass=0;strokeWidth=1;shadow=0;" vertex="1" parent="WIyWlLk6GJQsqaUBKTNV-1">
          <mxGeometry x="141" y="460" width="120" height="40" as="geometry" />
        </mxCell>
        <mxCell id="La1fuwTci3h4XpZRs-hB-24" style="edgeStyle=orthogonalEdgeStyle;rounded=0;orthogonalLoop=1;jettySize=auto;html=1;exitX=0.5;exitY=1;exitDx=0;exitDy=0;entryX=1;entryY=0.5;entryDx=0;entryDy=0;" edge="1" parent="WIyWlLk6GJQsqaUBKTNV-1" source="La1fuwTci3h4XpZRs-hB-20" target="La1fuwTci3h4XpZRs-hB-3">
          <mxGeometry relative="1" as="geometry">
            <Array as="points">
              <mxPoint x="341" y="520" />
              <mxPoint x="466" y="520" />
              <mxPoint x="466" y="205" />
            </Array>
          </mxGeometry>
        </mxCell>
        <mxCell id="La1fuwTci3h4XpZRs-hB-25" value="审核通过" style="edgeLabel;html=1;align=center;verticalAlign=middle;resizable=0;points=[];" vertex="1" connectable="0" parent="La1fuwTci3h4XpZRs-hB-24">
          <mxGeometry x="0.1085" relative="1" as="geometry">
            <mxPoint as="offset" />
          </mxGeometry>
        </mxCell>
        <mxCell id="La1fuwTci3h4XpZRs-hB-20" value="招标比价单" style="rounded=1;whiteSpace=wrap;html=1;fontSize=12;glass=0;strokeWidth=1;shadow=0;" vertex="1" parent="WIyWlLk6GJQsqaUBKTNV-1">
          <mxGeometry x="281" y="460" width="120" height="40" as="geometry" />
        </mxCell>
      </root>
    </mxGraphModel>
  </diagram>
</mxfile>
